<svg xmlns="http://www.w3.org/2000/svg" version="1.1" xmlns:xlink="http://www.w3.org/1999/xlink" xmlns:svgjs="http://svgjs.com/svgjs" width="2340" height="1080" preserveAspectRatio="none" viewBox="0 0 2340 1080"><g mask="url(&quot;#SvgjsMask21232&quot;)" fill="none"><rect width="2340" height="1080" x="0" y="0" fill="#0e2a47"></rect><rect width="420" height="420" clip-path="url(&quot;#SvgjsClipPath21233&quot;)" x="1086.51" y="628.51" fill="url(#SvgjsPattern21234)" transform="rotate(162.72, 1296.51, 838.51)"></rect><path d="M186.07 910.47L175.03 903.98 178.93 891.78 167.89 885.29 171.8 873.1 160.76 866.61 164.67 854.41M193.54 907.62L182.5 901.13 186.41 888.93 175.37 882.44 179.28 870.24 168.24 863.75 172.14 851.56" stroke="#d3b714" stroke-width="2.93" stroke-dasharray="3, 2"></path><path d="M2138.57 866.33a5.6 5.6 0 1 0-7.72-8.12 5.6 5.6 0 1 0 7.72 8.12zM2127.55 854.73a5.6 5.6 0 1 0-7.71-8.12 5.6 5.6 0 1 0 7.71 8.12zM2116.53 843.12a5.6 5.6 0 1 0-7.71-8.12 5.6 5.6 0 1 0 7.71 8.12zM2105.51 831.52a5.6 5.6 0 1 0-7.71-8.12 5.6 5.6 0 1 0 7.71 8.12z" fill="#e73635"></path><rect width="384" height="384" clip-path="url(&quot;#SvgjsClipPath21235&quot;)" x="1861.61" y="650.32" fill="url(#SvgjsPattern21236)" transform="rotate(153.42, 2053.61, 842.32)"></rect><rect width="569.08" height="569.08" clip-path="url(&quot;#SvgjsClipPath21237&quot;)" x="24.86" y="-51.51" fill="url(#SvgjsPattern21238)" transform="rotate(58.45, 309.4, 233.03)"></rect><path d="M325.49 768.84 L507.09000000000003 844.35L486.24334837260176 736.6416516273982z" fill="#037b0b"></path><path d="M1628.45 119.34L1616.03 116.24 1616.33 103.44 1603.9 100.34 1604.2 87.53 1591.78 84.43 1592.08 71.63" stroke="#d3b714" stroke-width="1" stroke-dasharray="3, 3"></path><path d="M1291.34 806.54a5.6 5.6 0 1 0-0.77 11.18 5.6 5.6 0 1 0 0.77-11.18zM1290.24 822.51a5.6 5.6 0 1 0-0.76 11.17 5.6 5.6 0 1 0 0.76-11.17zM1289.15 838.47a5.6 5.6 0 1 0-0.76 11.17 5.6 5.6 0 1 0 0.76-11.17zM1288.06 854.43a5.6 5.6 0 1 0-0.76 11.18 5.6 5.6 0 1 0 0.76-11.18zM1277.56 773.53a5.6 5.6 0 1 0-0.77 11.17 5.6 5.6 0 1 0 0.77-11.17zM1276.46 789.49a5.6 5.6 0 1 0-0.76 11.17 5.6 5.6 0 1 0 0.76-11.17zM1275.37 805.45a5.6 5.6 0 1 0-0.76 11.18 5.6 5.6 0 1 0 0.76-11.18zM1274.28 821.42a5.6 5.6 0 1 0-0.76 11.17 5.6 5.6 0 1 0 0.76-11.17z" stroke="#e73635" stroke-width="2.31" stroke-dasharray="3, 3"></path><rect width="150.92" height="150.92" clip-path="url(&quot;#SvgjsClipPath21239&quot;)" x="44.15" y="723.03" fill="url(#SvgjsPattern21240)" transform="rotate(196.23, 119.61, 798.49)"></rect><rect width="612" height="612" clip-path="url(&quot;#SvgjsClipPath21241&quot;)" x="1481.76" y="44.23" fill="url(#SvgjsPattern21242)" transform="rotate(49.39, 1787.76, 350.23)"></rect></g><defs><mask id="SvgjsMask21232"><rect width="2340" height="1080" fill="#ffffff"></rect></mask><pattern x="0" y="0" width="6" height="6" patternUnits="userSpaceOnUse" id="SvgjsPattern21234"><path d="M3 1L3 5M1 3L5 3" stroke="#e73635" fill="none" stroke-width="1.56"></path></pattern><clipPath id="SvgjsClipPath21233"><circle r="105" cx="1296.51" cy="838.51"></circle></clipPath><pattern x="0" y="0" width="384" height="6" patternUnits="userSpaceOnUse" id="SvgjsPattern21236"><rect width="384" height="3" x="0" y="0" fill="#037b0b"></rect><rect width="384" height="3" x="0" y="3" fill="rgba(0, 0, 0, 0)"></rect></pattern><clipPath id="SvgjsClipPath21235"><circle r="96" cx="2053.61" cy="842.32"></circle></clipPath><pattern x="0" y="0" width="569.08" height="6.94" patternUnits="userSpaceOnUse" id="SvgjsPattern21238"><rect width="569.08" height="3.47" x="0" y="0" fill="#037b0b"></rect><rect width="569.08" height="3.47" x="0" y="3.47" fill="rgba(0, 0, 0, 0)"></rect></pattern><clipPath id="SvgjsClipPath21237"><circle r="142.27" cx="309.4" cy="233.03"></circle></clipPath><pattern x="0" y="0" width="10.78" height="10.78" patternUnits="userSpaceOnUse" id="SvgjsPattern21240"><path d="M5.39 1L5.39 9.78M1 5.39L9.78 5.39" stroke="#d3b714" fill="none" stroke-width="3.29"></path></pattern><clipPath id="SvgjsClipPath21239"><circle r="37.73" cx="119.61" cy="798.49"></circle></clipPath><pattern x="0" y="0" width="612" height="6" patternUnits="userSpaceOnUse" id="SvgjsPattern21242"><rect width="612" height="3" x="0" y="0" fill="#037b0b"></rect><rect width="612" height="3" x="0" y="3" fill="rgba(0, 0, 0, 0)"></rect></pattern><clipPath id="SvgjsClipPath21241"><circle r="153" cx="1787.76" cy="350.23"></circle></clipPath></defs></svg>